<?xml version="1.0" standalone="no"?>
<!DOCTYPE svg PUBLIC "-//W3C//DTD SVG 20010904//EN"
 "http://www.w3.org/TR/2001/REC-SVG-20010904/DTD/svg10.dtd">
<svg version="1.0" xmlns="http://www.w3.org/2000/svg"
 width="500.000000pt" height="499.000000pt" viewBox="0 0 500.000000 499.000000"
 preserveAspectRatio="xMidYMid meet">

<g transform="translate(0.000000,499.000000) scale(0.100000,-0.100000)"
fill="#000000" stroke="none">
<path d="M2370 4933 c-284 -20 -609 -92 -793 -177 -32 -14 -61 -26 -65 -26
-15 0 -268 -133 -335 -176 -37 -24 -70 -44 -73 -44 -3 0 -11 -6 -18 -12 -7 -7
-25 -22 -40 -33 -106 -77 -270 -220 -329 -287 -93 -106 -141 -162 -164 -193
-13 -17 -37 -48 -54 -70 -17 -22 -43 -60 -57 -85 -14 -25 -29 -47 -32 -50 -12
-12 -133 -247 -159 -310 -8 -19 -25 -59 -38 -88 -42 -92 -84 -239 -122 -422
-37 -183 -45 -264 -44 -480 0 -197 5 -257 34 -420 30 -171 86 -370 131 -469
11 -25 29 -66 40 -91 73 -170 192 -376 284 -492 32 -40 61 -75 64 -78 3 -3 26
-30 51 -60 91 -113 186 -202 339 -320 25 -19 47 -37 50 -41 3 -4 50 -36 105
-71 113 -73 257 -150 360 -193 39 -16 75 -32 80 -36 26 -18 223 -78 355 -108
397 -90 703 -90 1100 0 224 51 379 108 599 222 87 45 290 171 301 187 3 4 23
20 45 36 107 77 276 235 350 329 22 28 42 52 46 55 20 19 123 155 150 200 18
30 35 57 38 60 13 11 171 319 171 332 0 4 11 32 25 61 41 91 85 237 116 382
70 336 74 664 12 975 -9 41 -19 95 -24 120 -15 82 -69 250 -105 327 -13 30
-24 57 -24 61 0 12 -144 296 -158 310 -7 8 -20 28 -28 45 -16 32 -94 144 -125
182 -112 134 -149 177 -183 214 -52 55 -227 205 -312 266 -15 11 -33 26 -40
33 -7 6 -15 12 -17 12 -3 0 -43 24 -89 53 -188 118 -524 262 -678 292 -19 3
-73 15 -120 25 -212 46 -442 66 -620 53z m158 -438 l37 -90 102 -6 c57 -3 105
-8 108 -11 4 -3 -20 -26 -52 -51 -32 -25 -68 -55 -79 -68 l-22 -24 28 -100
c16 -55 28 -101 26 -102 -1 -1 -42 24 -92 56 l-91 58 -82 -58 c-45 -33 -85
-59 -90 -59 -5 0 1 41 15 91 13 50 24 97 24 105 0 7 -33 39 -74 69 -41 30 -77
59 -80 64 -7 10 51 21 116 21 82 0 89 7 127 116 19 54 36 94 38 88 2 -5 20
-49 41 -99z m-763 -340 l110 -10 -82 -69 c-46 -38 -83 -70 -83 -71 0 -1 13
-46 30 -100 16 -55 28 -100 26 -102 -1 -1 -41 22 -89 52 -48 30 -89 55 -93 55
-3 0 -41 -24 -83 -53 -42 -29 -81 -56 -87 -60 -7 -4 -2 30 12 86 13 50 24 100
24 109 0 10 -36 44 -85 80 l-84 63 52 7 c29 3 78 6 109 7 l57 1 19 53 c11 28
28 75 38 104 l18 52 41 -97 41 -97 109 -10z m1819 0 l111 -7 -50 -42 c-27 -22
-64 -54 -82 -71 l-32 -30 13 -50 c8 -27 21 -74 29 -102 9 -29 14 -53 12 -53
-2 0 -43 25 -91 56 -47 30 -91 53 -97 51 -7 -3 -48 -30 -91 -61 -44 -30 -81
-54 -83 -53 -1 2 9 45 22 96 14 51 25 99 25 106 0 8 -19 27 -42 43 -24 17 -59
44 -78 61 -19 17 -39 31 -45 32 -21 3 93 17 147 18 66 1 65 0 113 134 l28 79
41 -100 40 -100 110 -7z m531 -597 l27 -68 112 0 111 -1 -40 -37 c-22 -20 -60
-53 -84 -73 l-44 -37 27 -97 c15 -54 25 -99 23 -102 -3 -2 -41 19 -84 46 -44
28 -86 51 -93 51 -7 0 -48 -25 -92 -56 -44 -31 -82 -53 -85 -51 -2 3 7 49 22
103 l27 99 -24 18 c-12 10 -51 40 -85 66 -57 44 -61 49 -40 55 12 3 40 6 63 6
23 0 62 3 87 6 l46 7 22 66 c12 36 29 82 37 101 l14 34 13 -34 c6 -19 24 -65
40 -102z m-3163 30 l35 -93 114 -5 114 -5 -83 -70 -83 -69 7 -40 c3 -22 15
-64 25 -95 11 -30 19 -60 19 -67 0 -8 -35 10 -84 41 -46 30 -89 55 -96 55 -7
0 -48 -25 -92 -55 -44 -31 -82 -54 -84 -52 -3 2 7 49 20 103 24 96 24 99 6
114 -10 8 -48 38 -83 65 -72 55 -70 63 14 64 25 1 66 4 91 7 l45 6 33 94 c19
52 37 94 40 94 4 0 22 -42 42 -92z m1706 -293 c138 -33 263 -124 328 -241 34
-62 84 -230 84 -285 l0 -29 -90 0 -90 0 0 29 c0 54 -48 184 -88 236 -72 95
-213 142 -343 115 -75 -16 -166 -74 -202 -128 -26 -41 -60 -137 -72 -209 l-7
-43 -90 0 -90 0 7 57 c18 147 86 295 172 373 128 117 311 165 481 125z m-1907
-709 c2 -3 51 -6 107 -7 56 -1 102 -4 101 -8 0 -5 -103 -96 -144 -127 -13 -10
-11 -25 15 -110 16 -54 27 -100 25 -102 -2 -2 -43 20 -92 50 l-88 54 -85 -57
c-47 -31 -86 -53 -88 -49 -1 4 7 46 18 94 11 48 20 91 20 96 0 5 -35 37 -77
71 -43 34 -79 65 -81 69 -2 5 43 10 98 12 80 2 104 7 114 19 6 9 25 58 41 107
l29 91 41 -99 c23 -55 43 -102 46 -104z m3609 55 c11 -30 21 -55 23 -57 1 -2
52 -4 112 -5 l109 -1 -35 -32 c-19 -17 -56 -50 -82 -73 l-48 -42 20 -68 c11
-37 24 -84 29 -104 l10 -37 -92 58 -92 57 -88 -59 c-48 -33 -89 -58 -91 -56
-2 2 7 46 20 98 14 52 25 98 25 101 0 3 -39 37 -87 75 l-88 69 110 6 c61 4
111 7 111 8 1 0 14 36 29 79 50 141 44 134 67 82 11 -25 28 -69 38 -99z
m-1214 38 c18 -20 19 -43 19 -486 l0 -465 -24 -19 c-22 -18 -47 -19 -605 -19
-613 1 -599 0 -624 47 -16 29 -17 869 -2 910 6 15 18 34 27 41 13 9 150 12
603 12 584 0 587 0 606 -21z m-2192 -909 l39 -100 111 -1 111 0 -44 -37 c-25
-20 -63 -53 -85 -73 l-40 -37 23 -83 c13 -46 26 -93 29 -103 5 -18 0 -17 -44
9 -27 15 -68 41 -92 56 l-43 29 -87 -60 c-47 -32 -88 -57 -90 -56 -2 2 6 41
18 87 11 46 22 92 24 102 3 13 -19 35 -79 80 -46 34 -84 65 -85 70 0 4 26 7
58 7 31 0 80 3 108 6 l51 6 34 99 c19 55 36 99 39 99 3 0 22 -45 44 -100z
m3300 -101 l111 0 -49 -42 c-28 -23 -66 -56 -85 -73 l-34 -31 27 -98 c15 -54
25 -99 23 -101 -2 -2 -43 21 -91 50 l-89 54 -85 -59 c-47 -32 -87 -57 -89 -55
-3 2 7 48 21 101 17 63 23 102 17 109 -5 6 -43 36 -85 66 -41 30 -75 58 -75
63 -1 4 25 7 57 7 31 0 80 3 108 6 l50 6 29 82 c46 132 42 132 87 17 l41 -101
111 -1z m-2635 -564 c37 -88 38 -90 77 -97 21 -4 71 -7 109 -8 l70 -1 -49 -42
c-28 -23 -65 -55 -83 -72 l-34 -30 30 -100 c17 -54 29 -100 27 -102 -1 -1 -42
22 -90 52 -48 30 -89 55 -92 55 -3 0 -39 -24 -82 -53 -42 -30 -82 -57 -89 -61
-7 -4 -3 28 13 85 13 50 24 99 24 109 0 11 -33 43 -85 83 l-85 65 109 7 109 7
36 94 c20 52 36 99 37 106 1 15 -1 19 48 -97z m1815 6 l37 -98 52 -7 c29 -3
79 -6 112 -6 l60 -1 -44 -37 c-25 -20 -62 -53 -83 -72 l-39 -35 29 -103 29
-102 -46 26 c-25 15 -65 40 -89 56 -24 17 -48 27 -55 25 -7 -3 -48 -30 -92
-60 -44 -31 -81 -54 -82 -53 -1 1 9 44 22 96 14 52 25 100 25 105 0 9 -82 77
-155 129 -17 13 -8 15 92 21 l112 7 37 104 c20 57 38 104 39 104 1 0 18 -44
39 -99z m-904 -253 l37 -93 109 -5 109 -5 -54 -45 c-30 -25 -66 -56 -82 -70
l-28 -25 28 -100 c15 -55 27 -102 25 -104 -2 -2 -38 19 -81 46 -43 27 -83 52
-89 56 -6 4 -44 -16 -84 -44 -117 -81 -111 -84 -81 37 l26 105 -25 20 c-14 11
-41 31 -60 44 -19 13 -48 35 -63 48 l-29 24 111 7 110 8 21 56 c47 127 53 142
58 138 2 -3 21 -47 42 -98z"/>
<path d="M2475 2476 c-37 -16 -84 -63 -96 -94 -25 -64 0 -150 57 -194 22 -18
24 -26 26 -151 l3 -132 73 -3 72 -3 0 134 c0 132 0 135 25 151 66 43 84 167
35 236 -42 59 -130 84 -195 56z"/>
</g>
</svg>
